<svg width="40" height="40" viewBox="0 0 40 40" fill="none" xmlns="http://www.w3.org/2000/svg">
<path d="M32.1167 8.88331C29.9 7.84997 27.5 7.09997 25 6.66664C24.9781 6.66594 24.9563 6.67005 24.9361 6.67869C24.916 6.68733 24.8979 6.70029 24.8833 6.71664C24.5833 7.26664 24.2333 7.98331 24 8.53331C21.3483 8.13331 18.6517 8.13331 16 8.53331C15.7667 7.96664 15.4167 7.26664 15.1 6.71664C15.0833 6.68331 15.0333 6.66664 14.9833 6.66664C12.4833 7.09997 10.1 7.84997 7.86666 8.88331C7.84999 8.88331 7.83333 8.89997 7.81666 8.91664C3.28333 15.7 2.03333 22.3 2.64999 28.8333C2.64999 28.8666 2.66666 28.9 2.69999 28.9166C5.69999 31.1166 8.58333 32.45 11.4333 33.3333C11.4833 33.35 11.5333 33.3333 11.55 33.3C12.2167 32.3833 12.8167 31.4166 13.3333 30.4C13.3667 30.3333 13.3333 30.2666 13.2667 30.25C12.3167 29.8833 11.4167 29.45 10.5333 28.95C10.4667 28.9166 10.4667 28.8166 10.5167 28.7666C10.7 28.6333 10.8833 28.4833 11.0667 28.35C11.1 28.3166 11.15 28.3166 11.1833 28.3333C16.9167 30.95 23.1 30.95 28.7667 28.3333C28.8 28.3166 28.85 28.3166 28.8833 28.35C29.0667 28.5 29.25 28.6333 29.4333 28.7833C29.5 28.8333 29.5 28.9333 29.4167 28.9666C28.55 29.4833 27.6333 29.9 26.6833 30.2666C26.6167 30.2833 26.6 30.3666 26.6167 30.4166C27.15 31.4333 27.75 32.4 28.4 33.3166C28.45 33.3333 28.5 33.35 28.55 33.3333C31.4167 32.45 34.3 31.1166 37.3 28.9166C37.3333 28.9 37.35 28.8666 37.35 28.8333C38.0833 21.2833 36.1333 14.7333 32.1833 8.91664C32.1667 8.89997 32.15 8.88331 32.1167 8.88331ZM14.2 24.85C12.4833 24.85 11.05 23.2666 11.05 21.3166C11.05 19.3666 12.45 17.7833 14.2 17.7833C15.9667 17.7833 17.3667 19.3833 17.35 21.3166C17.35 23.2666 15.95 24.85 14.2 24.85ZM25.8167 24.85C24.1 24.85 22.6667 23.2666 22.6667 21.3166C22.6667 19.3666 24.0667 17.7833 25.8167 17.7833C27.5833 17.7833 28.9833 19.3833 28.9667 21.3166C28.9667 23.2666 27.5833 24.85 25.8167 24.85Z" fill="#21243D"/>
</svg>
