<svg width="35" height="35" viewBox="0 0 35 35" fill="none" xmlns="http://www.w3.org/2000/svg">
<path d="M17.5 2.91669C15.5849 2.91669 13.6886 3.2939 11.9192 4.02678C10.1499 4.75966 8.54223 5.83386 7.18805 7.18805C4.45314 9.92295 2.91669 13.6323 2.91669 17.5C2.91669 23.9459 7.1021 29.4146 12.8917 31.3542C13.6209 31.4709 13.8542 31.0188 13.8542 30.625V28.1604C9.8146 29.0354 8.95419 26.2063 8.95419 26.2063C8.28335 24.5146 7.33544 24.0625 7.33544 24.0625C6.00835 23.1584 7.43752 23.1875 7.43752 23.1875C8.89585 23.2896 9.66877 24.6896 9.66877 24.6896C10.9375 26.9063 13.0813 26.25 13.9125 25.9C14.0438 24.9521 14.4229 24.3104 14.8313 23.9459C11.5938 23.5813 8.19585 22.3271 8.19585 16.7709C8.19585 15.1521 8.75002 13.8542 9.69794 12.8188C9.5521 12.4542 9.04169 10.9375 9.84377 8.96877C9.84377 8.96877 11.0688 8.57502 13.8542 10.4563C15.0063 10.1354 16.2604 9.97502 17.5 9.97502C18.7396 9.97502 19.9938 10.1354 21.1459 10.4563C23.9313 8.57502 25.1563 8.96877 25.1563 8.96877C25.9584 10.9375 25.4479 12.4542 25.3021 12.8188C26.25 13.8542 26.8042 15.1521 26.8042 16.7709C26.8042 22.3417 23.3917 23.5667 20.1396 23.9313C20.6646 24.3834 21.1459 25.2729 21.1459 26.6292V30.625C21.1459 31.0188 21.3792 31.4854 22.1229 31.3542C27.9125 29.4 32.0834 23.9459 32.0834 17.5C32.0834 15.5849 31.7061 13.6886 30.9733 11.9192C30.2404 10.1499 29.1662 8.54223 27.812 7.18805C26.4578 5.83386 24.8502 4.75966 23.0808 4.02678C21.3115 3.2939 19.4151 2.91669 17.5 2.91669Z" fill="#21243D"/>
</svg>
